<svg width="82" height="64" viewBox="0 0 82 47" fill="none" xmlns="http://www.w3.org/2000/svg">
<path d="M2.01562 43.6094C1.46875 43.6094 1.07812 43.375 0.84375 42.9062C0.726562 42.6719 0.667969 42.431 0.667969 42.1836C0.667969 42.0664 0.68099 41.9492 0.707031 41.832C2.03516 35.543 3.61719 29.332 5.45312 23.1992C6.75521 18.8112 7.73828 15.4388 8.40234 13.082C8.50651 12.7044 8.72135 12.4245 9.04688 12.2422C9.26823 12.125 9.50911 12.0664 9.76953 12.0664C10.3164 12.0664 10.7135 12.3008 10.9609 12.7695C11.0781 12.9909 11.1367 13.2253 11.1367 13.4727C11.1367 13.5898 11.1237 13.7135 11.0977 13.8438C10.8633 14.7161 10.069 17.418 8.71484 21.9492C6.55339 29.2799 4.78255 36.1549 3.40234 42.5742C3.3112 42.9648 3.09635 43.2448 2.75781 43.4141C2.52344 43.5443 2.27604 43.6094 2.01562 43.6094ZM9.45703 30.2109C8.51953 30.2109 7.67318 29.8919 6.91797 29.2539C6.20182 28.6549 5.84375 27.9128 5.84375 27.0273C5.84375 26.168 6.21484 25.3802 6.95703 24.6641C7.97266 23.6745 9.23568 22.8607 10.7461 22.2227C12.9596 21.4674 14.9844 20.9271 16.8203 20.6016C18.6693 20.263 20.9284 19.8073 23.5977 19.2344C23.9753 19.1432 24.2878 19.2409 24.5352 19.5273C24.7956 19.8008 24.9323 20.1263 24.9453 20.5039C24.9583 20.9076 24.8216 21.2396 24.5352 21.5C24.2617 21.7474 23.9362 21.8776 23.5586 21.8906C22.2044 22.2682 20.375 22.6849 18.0703 23.1406L17.1719 23.3164C15.8828 23.5898 14.9062 23.8112 14.2422 23.9805C13.5911 24.1497 12.9401 24.3581 12.2891 24.6055L12.25 24.625C12.1719 24.6641 12.1133 24.6901 12.0742 24.7031C12.0482 24.7031 12.0286 24.7096 12.0156 24.7227C12.0286 24.7096 12.0612 24.6966 12.1133 24.6836L11.8789 24.7812C10.9805 25.1849 10.1667 25.6602 9.4375 26.207L9.39844 26.2266C9.39844 26.2396 9.34635 26.2917 9.24219 26.3828C9.13802 26.4609 9.03385 26.5521 8.92969 26.6562L8.79297 26.793L8.77344 26.8125L8.85156 26.7344L8.63672 27.0273L8.69531 26.9102L8.63672 27.125L8.65625 27.0078V27.1055L8.63672 26.9492L8.65625 27.125V27.0469L8.75391 27.1836L8.63672 27.0664C8.71484 27.1706 8.76693 27.2227 8.79297 27.2227C8.83203 27.2617 8.85156 27.2878 8.85156 27.3008H8.87109L8.77344 27.2227L8.98828 27.3398H8.91016L9.10547 27.3789L9.26172 27.3984C9.26172 27.4115 9.22266 27.418 9.14453 27.418L9.16406 27.3984H9.30078H9.71094L9.61328 27.418C9.95182 27.3529 10.2839 27.2617 10.6094 27.1445L10.9219 27.0273L10.8828 27.0469L10.7852 27.0859L10.9219 27.0273C11.7292 26.6237 12.3932 26.2266 12.9141 25.8359L12.7969 25.9141L12.8164 25.8945C12.8424 25.8945 12.8945 25.8555 12.9727 25.7773C13.6758 25.1914 14.2227 24.625 14.6133 24.0781C14.5872 24.1302 14.5677 24.1562 14.5547 24.1562L14.7891 23.8438C15.2578 23.1667 15.6419 22.4701 15.9414 21.7539L15.8828 21.9102C15.8828 21.8971 15.8828 21.8841 15.8828 21.8711C15.8958 21.8581 15.9089 21.832 15.9219 21.793C15.9479 21.7539 16.0195 21.5651 16.1367 21.2266C16.332 20.6276 16.4622 20.1068 16.5273 19.6641C16.5404 19.5599 16.5599 19.4688 16.5859 19.3906L16.6055 19.332L16.5859 19.4492C16.651 19.0065 16.6836 18.5638 16.6836 18.1211C16.6836 17.8477 16.6641 17.5742 16.625 17.3008C16.612 17.1706 16.6055 17.0599 16.6055 16.9688V16.8516V16.9102L16.625 17.0078L16.5078 16.5L16.332 15.7383L16.3711 15.7578V15.8164C16.3581 15.8164 16.3385 15.8034 16.3125 15.7773C16.2995 15.7513 16.2799 15.7122 16.2539 15.6602C16.2279 15.6081 16.2018 15.5625 16.1758 15.5234C16.2018 15.5495 16.2148 15.569 16.2148 15.582C16.2279 15.582 16.2344 15.5885 16.2344 15.6016L16.2148 15.582C16.1888 15.582 16.1628 15.5625 16.1367 15.5234C16.1107 15.4844 16.0911 15.4583 16.0781 15.4453L16.0977 15.4648L15.8047 15.3086H15.8633L15.9023 15.3477L15.8242 15.3281C15.7331 15.3021 15.6419 15.2826 15.5508 15.2695C15.4727 15.2565 15.4271 15.2435 15.4141 15.2305H15.375C15.4141 15.2435 15.4596 15.25 15.5117 15.25H14.9453C14.9062 15.25 14.8477 15.25 14.7695 15.25L14.8477 15.2305C14.5872 15.2695 14.3073 15.3411 14.0078 15.4453L13.6562 15.5625L13.7734 15.5039C13.7734 15.543 13.6953 15.6016 13.5391 15.6797C13.0703 15.9141 12.7643 16.0833 12.6211 16.1875L12.5039 16.2656L12.6016 16.1875C11.9245 16.7734 11.4818 17.2031 11.2734 17.4766L11.1758 17.6133L11.1953 17.5938C11.1953 17.5807 11.2018 17.5742 11.2148 17.5742C11.2279 17.5612 11.2409 17.5482 11.2539 17.5352V17.5156L10.8047 18.1602C10.2708 18.9414 9.6263 20.1458 8.87109 21.7734C8.64974 22.2422 8.25911 22.4766 7.69922 22.4766C7.4388 22.4766 7.19792 22.4115 6.97656 22.2812C6.53385 22.0339 6.3125 21.6302 6.3125 21.0703C6.3125 20.5365 6.90495 19.2409 8.08984 17.1836C9.37891 14.9701 11.1302 13.4727 13.3438 12.6914C13.9167 12.4961 14.4896 12.3984 15.0625 12.3984C15.6354 12.3984 16.2018 12.5091 16.7617 12.7305C18.0117 13.1992 18.806 14.0781 19.1445 15.3672C19.3659 16.2005 19.4766 17.0534 19.4766 17.9258C19.4766 19.8138 19.099 21.6042 18.3438 23.2969C17.237 25.7839 15.4727 27.7305 13.0508 29.1367C11.8268 29.8529 10.6289 30.2109 9.45703 30.2109ZM27.5234 29.0391C26.651 29.0391 25.7721 28.8438 24.8867 28.4531C24.0013 28.0625 23.3047 27.4115 22.7969 26.5C22.4193 25.7188 22.2305 24.918 22.2305 24.0977C22.2305 22.9128 22.556 21.6302 23.207 20.25C24.0404 18.5052 25.1211 16.9297 26.4492 15.5234C27.9596 13.8568 29.6068 12.9974 31.3906 12.9453C32.263 12.9453 33.0964 13.1602 33.8906 13.5898C34.6979 14.0195 35.3034 14.6315 35.707 15.4258C35.9544 15.9987 36.0781 16.5586 36.0781 17.1055C36.0781 18.4206 35.4466 19.6706 34.1836 20.8555C32.5299 22.3529 30.6029 23.1016 28.4023 23.1016C27.0872 23.1016 25.8242 22.7956 24.6133 22.1836C24.1576 21.9362 23.9297 21.5326 23.9297 20.9727C23.9297 20.7253 23.9883 20.4844 24.1055 20.25C24.3659 19.8073 24.7695 19.5859 25.3164 19.5859C25.5508 19.5859 25.8438 19.6706 26.1953 19.8398L26.4102 19.9375C26.3971 19.9375 26.3841 19.9375 26.3711 19.9375C26.3581 19.9375 26.3385 19.931 26.3125 19.918C26.2865 19.9049 26.2734 19.8919 26.2734 19.8789L26.4297 19.9375C26.7031 20.0677 27.0221 20.1589 27.3867 20.2109C27.4648 20.25 27.569 20.2695 27.6992 20.2695L27.5625 20.25C27.6276 20.276 27.888 20.2891 28.3438 20.2891C28.7865 20.2891 29.0859 20.276 29.2422 20.25C29.1771 20.276 29.1315 20.2891 29.1055 20.2891H29.0859L29.2227 20.25C29.2487 20.25 29.2682 20.2435 29.2812 20.2305C29.9062 20.1263 30.388 19.9896 30.7266 19.8203L30.5703 19.8789C30.7917 19.8008 31.0521 19.6706 31.3516 19.4883C31.651 19.306 31.8203 19.1953 31.8594 19.1562L31.957 19.0781L31.8398 19.1758L31.918 19.1172C32.4779 18.5573 32.7578 18.2773 32.7578 18.2773L32.8164 18.1992L32.7383 18.3164V18.2773C32.7904 18.1992 32.8294 18.1471 32.8555 18.1211C32.8815 18.082 32.9076 18.0365 32.9336 17.9844C32.9987 17.8932 33.0508 17.8086 33.0898 17.7305C33.1419 17.6393 33.168 17.5938 33.168 17.5938C33.168 17.5807 33.1745 17.5677 33.1875 17.5547L33.1484 17.6328L33.2656 17.2812L33.2852 17.1641V16.9102L33.3047 16.8906L33.3242 16.9102C33.3242 16.9232 33.3242 16.9362 33.3242 16.9492C33.3242 16.9622 33.3307 16.9753 33.3438 16.9883C33.3438 17.0143 33.3372 17.0273 33.3242 17.0273C33.3112 17.0143 33.2982 16.9948 33.2852 16.9688C33.2852 16.9427 33.2786 16.9167 33.2656 16.8906C33.2656 16.8646 33.2591 16.8385 33.2461 16.8125C33.2331 16.7865 33.2266 16.7604 33.2266 16.7344C33.2266 16.7083 33.2331 16.6953 33.2461 16.6953L33.3047 16.832L33.2461 16.7734C33.194 16.6693 33.1615 16.6172 33.1484 16.6172C33.1484 16.6042 33.1419 16.5846 33.1289 16.5586C33.1159 16.5326 33.0898 16.4935 33.0508 16.4414L33.1484 16.5391L32.7383 16.1484L32.875 16.2656L32.2695 15.8945V15.875L32.4062 15.9727L32.25 15.8945C31.9635 15.8164 31.7878 15.7773 31.7227 15.7773C31.6706 15.7643 31.6445 15.7513 31.6445 15.7383L31.6641 15.7188L31.8008 15.7773C31.7487 15.7513 31.6836 15.7383 31.6055 15.7383C31.5273 15.7383 31.4557 15.7448 31.3906 15.7578H31.2148C31.1367 15.7578 31.0977 15.7643 31.0977 15.7773C31.0977 15.7513 31.1432 15.7383 31.2344 15.7383C31.2083 15.7643 31.1237 15.7904 30.9805 15.8164C30.8372 15.8424 30.7135 15.875 30.6094 15.9141C30.5182 15.9531 30.4336 15.9857 30.3555 16.0117L30.4727 15.9531L30.3555 16.0117C29.9779 16.2201 29.737 16.3568 29.6328 16.4219L29.4961 16.5195L29.4375 16.5781C29.4375 16.5651 29.4505 16.5521 29.4766 16.5391C29.5026 16.526 29.5221 16.513 29.5352 16.5L28.793 17.1641C28.4544 17.4896 28.0703 17.9193 27.6406 18.4531L27.543 18.5703H27.5625C27.5625 18.5443 27.582 18.5117 27.6211 18.4727L27.4258 18.7461C26.8659 19.4753 26.306 20.3672 25.7461 21.4219L25.6875 21.5977C25.6354 21.6758 25.6094 21.7344 25.6094 21.7734L25.6289 21.6953C25.3815 22.2943 25.2057 22.8932 25.1016 23.4922L25.082 23.6094L25.1016 23.5117C25.0755 23.7331 25.0625 23.9544 25.0625 24.1758V24.4297C25.0625 24.5729 25.1081 24.7812 25.1992 25.0547C25.1992 25.0156 25.1927 24.9831 25.1797 24.957L25.2578 25.1328C25.2969 25.237 25.3685 25.3411 25.4727 25.4453L25.375 25.3477C25.4792 25.4648 25.5898 25.569 25.707 25.6602L25.7852 25.7578C25.7852 25.7448 25.7786 25.7383 25.7656 25.7383C25.7656 25.7253 25.7396 25.6992 25.6875 25.6602L26.0391 25.8945C26.0911 25.9076 26.1367 25.9271 26.1758 25.9531C26.2148 25.9792 26.2409 25.9987 26.2539 26.0117C26.2669 26.0117 26.2734 26.0182 26.2734 26.0312L26.2344 25.9922C26.1823 25.9792 26.1562 25.9661 26.1562 25.9531C26.5208 26.0703 26.7096 26.1289 26.7227 26.1289C26.7487 26.1289 26.7878 26.1354 26.8398 26.1484C26.8919 26.1615 26.931 26.1745 26.957 26.1875C26.9831 26.1875 27.0026 26.1875 27.0156 26.1875H26.9375C27.1719 26.2135 27.4128 26.2266 27.6602 26.2266L28.3633 26.168H28.3242L28.7148 26.1094C29.5612 25.9141 30.3359 25.6927 31.0391 25.4453L31.6445 25.2109L31.8789 25.1133C31.8659 25.1263 31.8464 25.1328 31.8203 25.1328C31.8073 25.1328 31.7943 25.1458 31.7812 25.1719C31.7812 25.1589 31.8203 25.1393 31.8984 25.1133C33.0182 24.6185 34.1966 23.7982 35.4336 22.6523C36.6706 21.4935 37.5755 20.6276 38.1484 20.0547C38.4349 19.7812 38.7669 19.6445 39.1445 19.6445C39.5091 19.6576 39.8281 19.7943 40.1016 20.0547C40.388 20.3151 40.5312 20.6276 40.5312 20.9922C40.5312 21.0182 40.5247 21.1289 40.5117 21.3242C40.5117 21.5195 40.3815 21.7604 40.1211 22.0469C37.4388 25.1719 34.4831 27.2747 31.2539 28.3555C29.8997 28.8112 28.6562 29.0391 27.5234 29.0391ZM42.2109 29.1367C41.0651 29.1367 40.0495 28.7786 39.1641 28.0625C38.0573 27.0599 37.5039 25.7448 37.5039 24.1172C37.5039 22.8411 37.9141 21.4414 38.7344 19.918C39.5547 18.2773 40.6875 16.8906 42.1328 15.7578C43.5391 14.6901 45.1406 14.1562 46.9375 14.1562C48.8516 14.1823 50.388 14.8529 51.5469 16.168C51.8203 16.4935 51.957 16.8255 51.957 17.1641C51.957 17.4896 51.8203 17.8216 51.5469 18.1602C51.2865 18.4206 50.9349 18.5508 50.4922 18.5508C50.1146 18.5508 49.8021 18.4206 49.5547 18.1602C49.5026 18.082 49.3529 17.9258 49.1055 17.6914L49.0273 17.6328L49.1445 17.7305L48.9688 17.5938C48.8516 17.5156 48.7279 17.444 48.5977 17.3789C48.5716 17.3659 48.5391 17.3529 48.5 17.3398C48.474 17.3138 48.4479 17.3008 48.4219 17.3008C48.3958 17.2878 48.3763 17.2812 48.3633 17.2812C48.3503 17.2682 48.3438 17.2552 48.3438 17.2422L48.4609 17.2812C48.1224 17.1641 47.7773 17.0729 47.4258 17.0078L47.3867 16.9688H47.3086C47.3086 16.9557 47.3151 16.9492 47.3281 16.9492L47.4648 17.0078C47.3867 16.9818 47.1523 16.9688 46.7617 16.9688L46.0781 16.9883C46.0911 16.9753 46.1107 16.9688 46.1367 16.9688L46.2148 16.9883H46.1367L46 17.0273C45.6745 17.0924 45.3555 17.1836 45.043 17.3008H44.9844L45.0625 17.2617H45.082L44.9648 17.3203C44.7435 17.4245 44.5156 17.5482 44.2812 17.6914C43.9297 17.9128 43.7148 18.056 43.6367 18.1211L43.7539 18.043H43.7344L43.6562 18.1211C43.0964 18.5898 42.6602 19.0326 42.3477 19.4492L42.2305 19.5859L42.25 19.5664C42.25 19.5534 42.2565 19.5469 42.2695 19.5469C42.2826 19.5339 42.2956 19.5208 42.3086 19.5078V19.4883L42.2695 19.5469C41.8398 20.1589 41.4492 20.7969 41.0977 21.4609C40.8893 21.8516 40.7786 22.0729 40.7656 22.125V22.1836L40.7461 22.2031L40.7852 22.1445V22.1055C40.5898 22.6263 40.4466 23.1146 40.3555 23.5703L40.3359 23.668L40.3164 23.6875V23.6484L40.3359 23.6289C40.3359 23.7201 40.3294 23.7917 40.3164 23.8438C40.3164 24.1693 40.3229 24.4167 40.3359 24.5859V24.5078C40.3359 24.5729 40.349 24.638 40.375 24.7031C40.375 24.8073 40.4336 25.0221 40.5508 25.3477V25.3086L40.7266 25.6016C40.7526 25.6797 40.7917 25.7448 40.8438 25.7969C40.7917 25.7318 40.7656 25.6862 40.7656 25.6602L40.7852 25.6992L40.9219 25.8555C40.987 25.9206 41.0391 25.9727 41.0781 26.0117C41.1302 26.0378 41.1628 26.0508 41.1758 26.0508L41.1562 26.0312C41.1302 26.0312 41.0911 26.0117 41.0391 25.9727L41.1172 26.0312L41.4688 26.207L41.3906 26.1875V26.168H41.4297C41.5078 26.207 41.5534 26.2331 41.5664 26.2461C41.5794 26.2461 41.6641 26.2591 41.8203 26.2852C41.8333 26.2982 41.8529 26.3047 41.8789 26.3047L41.7617 26.2852H41.8789C41.931 26.3112 42.0417 26.3242 42.2109 26.3242C42.4062 26.3242 42.6016 26.3112 42.7969 26.2852C42.7448 26.2852 42.7122 26.2917 42.6992 26.3047L42.7383 26.2852L42.9531 26.2461C43.4089 26.1549 43.8581 26.0247 44.3008 25.8555L44.4375 25.7969C44.4375 25.8099 44.418 25.8229 44.3789 25.8359C44.3529 25.8359 44.3333 25.8424 44.3203 25.8555C44.4115 25.8034 44.5091 25.7578 44.6133 25.7188C44.7826 25.6406 44.9518 25.5495 45.1211 25.4453C45.6549 25.1589 46.1562 24.8333 46.625 24.4688L46.5664 24.5078L46.8594 24.2734C48.3307 23.0625 50.1146 21.2721 52.2109 18.9023C53.5521 17.3789 54.5872 16.1354 55.3164 15.1719L55.4531 15.0156V14.9961L55.5117 14.9375L55.4727 14.9961C56.5404 13.6289 57.5495 12.2161 58.5 10.7578C59.3203 9.50781 59.9388 8.43359 60.3555 7.53516L60.6484 6.89062L60.668 6.85156L60.6484 6.87109L60.6289 6.94922L60.7461 6.63672C61.1237 5.66016 61.4036 4.65755 61.5859 3.62891L61.6055 3.47266V3.55078L61.5859 3.60938C61.625 3.33594 61.6445 3.04297 61.6445 2.73047C61.6445 2.79557 61.6576 2.83464 61.6836 2.84766H61.7031C61.7031 2.83464 61.6966 2.82812 61.6836 2.82812C61.6836 2.8151 61.6706 2.78906 61.6445 2.75L61.7227 2.86719V2.84766C61.7096 2.84766 61.7031 2.84766 61.7031 2.84766C61.7031 2.83464 61.6836 2.80859 61.6445 2.76953L61.6836 2.80859C61.7617 2.95182 61.8594 3.02344 61.9766 3.02344H61.8984C61.8333 2.9974 61.7878 2.98438 61.7617 2.98438C61.8529 2.9974 61.9049 3.01042 61.918 3.02344C61.9049 3.01042 61.8789 3.00391 61.8398 3.00391C61.8138 3.00391 61.7878 2.9974 61.7617 2.98438C61.6966 2.9974 61.5859 3.00391 61.4297 3.00391L61.3516 3.02344L61.5078 3.00391L61.2734 3.04297C61 3.09505 60.7266 3.17318 60.4531 3.27734L60.4141 3.29688C60.0495 3.42708 59.6198 3.68099 59.125 4.05859L58.4609 4.64453C58.0312 5.07422 57.7188 5.41927 57.5234 5.67969V5.69922L57.3867 5.85547L57.1719 6.14844C56.5859 6.94271 55.974 7.96484 55.3359 9.21484C54.9714 9.93099 54.6979 10.5104 54.5156 10.9531L54.4766 11.0508C54.4375 11.1289 54.4049 11.2135 54.3789 11.3047C53.7539 12.8672 53.2721 14.4688 52.9336 16.1094C52.7513 16.9818 52.6471 17.6068 52.6211 17.9844L52.6016 18.0234C52.6016 18.1276 52.5885 18.2448 52.5625 18.375C52.4714 19.2083 52.4193 20.0482 52.4062 20.8945C52.4062 21.4154 52.4128 21.806 52.4258 22.0664L52.4648 22.6328V22.5156L52.4844 22.5352C52.4844 22.7174 52.4974 22.8216 52.5234 22.8477C52.5625 23.082 52.6211 23.3164 52.6992 23.5508C52.7513 23.6549 52.7773 23.7266 52.7773 23.7656H52.7578L52.7188 23.6484L52.7383 23.6875C52.7383 23.7135 52.8685 23.9414 53.1289 24.3711L53.0703 24.2734C53.0703 24.2995 53.0833 24.3255 53.1094 24.3516C53.1484 24.3776 53.168 24.3971 53.168 24.4102C53.3893 24.6315 53.5195 24.7422 53.5586 24.7422L53.4805 24.7031L53.793 24.8789L53.9883 24.9766L53.8906 24.918H53.8516H53.8906C53.9297 24.957 53.9688 24.9766 54.0078 24.9766C54.2292 25.0677 54.4049 25.1133 54.5352 25.1133L54.7109 25.1523L54.5547 25.1328C54.5677 25.1458 54.5872 25.1523 54.6133 25.1523C54.6523 25.1523 54.7044 25.1589 54.7695 25.1719C55.2773 25.1719 55.6159 25.1589 55.7852 25.1328L55.668 25.1523L55.707 25.1328H55.7852C55.8372 25.1068 55.8958 25.0938 55.9609 25.0938C56.3516 25.0026 56.6445 24.9115 56.8398 24.8203L56.7031 24.8789C57.3542 24.5534 57.7773 24.293 57.9727 24.0977C57.9857 24.0977 58.0117 24.0781 58.0508 24.0391L58.1289 23.9805C59.2227 23.0951 60.4271 21.8776 61.7422 20.3281C62.0026 20.0547 62.3151 19.918 62.6797 19.918C62.7057 19.918 62.8164 19.9245 63.0117 19.9375C63.2201 19.9505 63.4609 20.0872 63.7344 20.3477C64.0078 20.6081 64.1445 20.9141 64.1445 21.2656C64.1445 21.2917 64.138 21.4023 64.125 21.5977C64.112 21.7799 63.9818 22.0208 63.7344 22.3203C63.2786 22.8411 62.8164 23.3555 62.3477 23.8633C61.2539 25.1003 60.0169 26.1615 58.6367 27.0469C57.543 27.6719 56.4036 27.9844 55.2188 27.9844C53.513 27.9844 52.1654 27.4375 51.1758 26.3438C50.1081 25.1849 49.5742 23.5052 49.5742 21.3047C49.5742 20.3672 49.6328 19.3906 49.75 18.375C50.1797 14.4688 51.319 10.7773 53.168 7.30078C53.7018 6.28516 54.3333 5.28255 55.0625 4.29297C56.7031 2.02734 58.5977 0.692708 60.7461 0.289062C61.0586 0.223958 61.3711 0.191406 61.6836 0.191406C61.9049 0.191406 62.2044 0.223958 62.582 0.289062C62.9727 0.341146 63.3763 0.56901 63.793 0.972656C64.1966 1.44141 64.4115 1.96875 64.4375 2.55469C64.4375 3.21875 64.3919 3.80469 64.3008 4.3125C63.9753 6.17448 63.3633 7.9388 62.4648 9.60547C61.5664 11.2591 60.5573 12.8411 59.4375 14.3516C57.0286 17.6849 54.4701 20.7318 51.7617 23.4922C50.4727 24.8984 49.0599 26.1549 47.5234 27.2617C45.7786 28.4857 44.0078 29.1107 42.2109 29.1367ZM59.75 46.7539C59.3594 46.7539 58.9753 46.6953 58.5977 46.5781C57.5299 46.1484 56.8984 45.4323 56.7031 44.4297C56.612 43.987 56.5664 43.5443 56.5664 43.1016C56.5664 42.5417 56.638 41.9753 56.7812 41.4023C57.3542 38.9805 58.6237 36.7409 60.5898 34.6836C62.4128 32.7826 64.3724 31.0443 66.4688 29.4688C68.5651 27.9062 70.694 26.3893 72.8555 24.918C74.9258 23.5117 76.9635 22.0599 78.9688 20.5625C79.1771 20.4193 79.3984 20.3477 79.6328 20.3477C80.1667 20.3477 80.5833 20.5885 80.8828 21.0703C81.013 21.2917 81.0781 21.5195 81.0781 21.7539C81.0781 22.2227 80.8438 22.6328 80.375 22.9844C79.0339 24.026 76.5794 25.7708 73.0117 28.2188C70.6549 29.8464 69.0273 31.0247 68.1289 31.7539C68.0898 31.7669 68.0508 31.7865 68.0117 31.8125C67.9857 31.8516 67.9531 31.8841 67.9141 31.9102L67.9727 31.8516H67.9922L67.7188 32.0664C65.6224 33.6289 63.7214 35.3737 62.0156 37.3008L61.7227 37.6523V37.6719C61.6576 37.737 61.625 37.776 61.625 37.7891H61.6055L61.6641 37.7109V37.7305L61.5859 37.8281C61.0781 38.5052 60.6289 39.2344 60.2383 40.0156C60.1081 40.276 60.0365 40.4323 60.0234 40.4844L60.0625 40.4062L59.9648 40.6211C59.7695 41.1289 59.6003 41.6823 59.457 42.2812C59.431 42.4896 59.4049 42.6328 59.3789 42.7109V42.7891H59.3594L59.3789 42.6719L59.3594 43.4141C59.3594 43.5573 59.3659 43.6549 59.3789 43.707C59.3659 43.707 59.3594 43.681 59.3594 43.6289L59.3398 43.5508H59.3594V43.6289L59.3789 43.6875C59.431 43.8177 59.457 43.9089 59.457 43.9609C59.444 43.9609 59.4375 43.9544 59.4375 43.9414C59.4245 43.9284 59.418 43.9089 59.418 43.8828C59.4049 43.8698 59.3984 43.8372 59.3984 43.7852L59.5156 44H59.4961C59.4961 44 59.4896 43.987 59.4766 43.9609C59.4505 43.9479 59.431 43.9284 59.418 43.9023C59.3919 43.8763 59.3789 43.8568 59.3789 43.8438C59.3919 43.8438 59.4049 43.8503 59.418 43.8633C59.431 43.8763 59.4505 43.8893 59.4766 43.9023C59.4896 43.9154 59.5026 43.9349 59.5156 43.9609C59.5026 43.9609 59.4896 43.9479 59.4766 43.9219C59.4505 43.9089 59.418 43.8893 59.3789 43.8633L59.3203 43.8242C59.3594 43.8372 59.3919 43.8503 59.418 43.8633C59.431 43.8893 59.4505 43.9089 59.4766 43.9219C59.5026 43.9349 59.5221 43.9414 59.5352 43.9414C59.5352 43.9414 59.5352 43.9479 59.5352 43.9609L59.3398 43.8828V43.8633C59.3659 43.8763 59.3919 43.8828 59.418 43.8828C59.444 43.8958 59.4766 43.9023 59.5156 43.9023C59.5547 43.9154 59.5938 43.9219 59.6328 43.9219C59.6589 43.9349 59.6719 43.9479 59.6719 43.9609L59.6523 43.9414L59.418 43.9219H60.0039C59.9779 43.9349 59.9193 43.9414 59.8281 43.9414H59.7891C59.8542 43.9414 59.9128 43.9284 59.9648 43.9023C60.056 43.9023 60.2578 43.8503 60.5703 43.7461L60.7266 43.6875L60.9219 43.5898C61.2214 43.4596 61.612 43.2318 62.0938 42.9062C62.0938 42.8932 62.1068 42.8737 62.1328 42.8477C62.1589 42.8346 62.1849 42.8216 62.2109 42.8086C62.237 42.7956 62.2565 42.7826 62.2695 42.7695H62.25C62.1849 42.8346 62.1458 42.8672 62.1328 42.8672C62.1328 42.8672 62.1328 42.8737 62.1328 42.8867L62.6406 42.4375C63.2266 41.8516 63.7734 41.2331 64.2812 40.582L64.2422 40.6406L64.6328 40.1133C65.5052 38.8763 66.3581 37.3854 67.1914 35.6406C67.3997 35.1979 67.5495 34.8659 67.6406 34.6445L67.6602 34.6055C67.6602 34.5794 67.6667 34.5534 67.6797 34.5273C67.6927 34.5013 67.7057 34.4818 67.7188 34.4688L67.6797 34.5469L67.7773 34.332C67.7773 34.306 67.7839 34.2865 67.7969 34.2734C68.9167 31.4609 70.4661 26.8125 72.4453 20.3281C72.901 18.8177 73.3698 17.3073 73.8516 15.7969C74.8672 16.2396 75.7201 16.5977 76.4102 16.8711C75.5508 18.8372 74.4701 20.6667 73.168 22.3594C71.6836 24.3255 70.2643 25.7708 68.9102 26.6953C67.9206 27.3594 66.8594 27.6914 65.7266 27.6914C64.9062 27.6914 64.138 27.444 63.4219 26.9492C62.4844 26.207 61.957 25.2826 61.8398 24.1758C61.8008 23.7852 61.7812 23.401 61.7812 23.0234C61.7812 22.3073 61.8464 21.5911 61.9766 20.875C62.3021 18.8177 62.9661 16.8841 63.9688 15.0742C64.2161 14.6185 64.6198 14.3906 65.1797 14.3906C65.4271 14.3906 65.6615 14.4492 65.8828 14.5664C66.3385 14.8138 66.5664 15.2174 66.5664 15.7773C66.5664 16.0247 66.5078 16.2591 66.3906 16.4805C66.1432 16.9232 65.9219 17.3789 65.7266 17.8477L65.6484 18.0234C65.1927 19.2474 64.8997 20.3086 64.7695 21.207L64.6914 21.6172L64.7109 21.5781V21.5391C64.6979 21.5651 64.6914 21.6042 64.6914 21.6562C64.6263 22.2292 64.5938 22.7891 64.5938 23.3359C64.5938 23.6354 64.6003 23.8372 64.6133 23.9414L64.5938 23.8242L64.7109 24.2734C64.724 24.2865 64.7305 24.306 64.7305 24.332L64.6914 24.2148C64.6914 24.2539 64.7109 24.2995 64.75 24.3516L64.7695 24.3711C64.7695 24.3971 64.7826 24.4297 64.8086 24.4688C64.8477 24.4948 64.8672 24.5143 64.8672 24.5273L64.7695 24.4297V24.4102C64.7826 24.4102 64.7891 24.4167 64.7891 24.4297C64.7891 24.4297 64.7891 24.4362 64.7891 24.4492C64.8021 24.4492 64.8411 24.4818 64.9062 24.5469C64.9062 24.5599 64.9193 24.5794 64.9453 24.6055C64.9714 24.6185 64.9909 24.625 65.0039 24.625V24.6445L64.8672 24.5664C64.8932 24.5794 64.9193 24.599 64.9453 24.625C64.9714 24.638 64.9974 24.651 65.0234 24.6641C65.0495 24.6771 65.069 24.6901 65.082 24.7031C65.1081 24.7031 65.1341 24.7096 65.1602 24.7227C65.1862 24.7357 65.2057 24.7487 65.2188 24.7617C65.2318 24.7617 65.2383 24.7682 65.2383 24.7812L65.2188 24.7617C65.1927 24.7487 65.1471 24.7357 65.082 24.7227C65.3555 24.8138 65.5312 24.8659 65.6094 24.8789L65.7266 24.8984C65.6875 24.8984 65.6615 24.8919 65.6484 24.8789C65.5833 24.8789 65.5508 24.8724 65.5508 24.8594C65.6029 24.8854 65.6615 24.8984 65.7266 24.8984C65.8047 24.8984 65.8763 24.8919 65.9414 24.8789H66.0391L66.2539 24.8398C66.4492 24.8008 66.6445 24.7422 66.8398 24.6641L66.7422 24.7031L66.8008 24.6641C66.8268 24.638 66.8594 24.625 66.8984 24.625C67.1719 24.4948 67.4388 24.3255 67.6992 24.1172C67.7122 24.1172 67.7188 24.1172 67.7188 24.1172C67.7318 24.1042 67.7578 24.0781 67.7969 24.0391L67.7188 24.0977C67.7578 24.0456 67.8229 23.9935 67.9141 23.9414C68.0703 23.8112 68.2266 23.668 68.3828 23.5117C70.7786 21.2201 72.6471 18.5378 73.9883 15.4648C74.2096 15.0091 74.6133 14.7812 75.1992 14.7812C75.7591 14.7812 76.1823 15.0417 76.4688 15.5625C76.5599 15.7448 76.6055 15.9401 76.6055 16.1484C76.6055 16.3438 76.3711 17.1641 75.9023 18.6094L73.0898 27.5742C72.4128 29.8008 71.6641 32.0078 70.8438 34.1953C69.9714 36.5521 68.8516 38.7852 67.4844 40.8945C66.8984 41.806 66.2474 42.6719 65.5312 43.4922C64.138 45.0938 62.6016 46.1224 60.9219 46.5781C60.5312 46.6953 60.1406 46.7539 59.75 46.7539Z" fill="#C53F3F"/>
</svg>
